<svg width="135" height="135" viewBox="0 0 135 135" fill="none" xmlns="http://www.w3.org/2000/svg">
<rect width="135" height="135" rx="67.5" fill="white"/>
<path d="M114.897 47.3276C112.347 41.0211 108.73 35.4151 104.14 30.67C99.5636 25.9424 94.0887 22.1062 87.879 19.2755C81.6392 16.4396 74.6947 15 67.2412 15C59.7868 15 52.8123 16.4327 46.5113 19.2694C40.2292 22.0993 34.6932 25.9977 30.0435 30.8647C25.3937 35.7324 21.7518 41.399 19.2029 47.7002C16.6533 54.0135 15.3604 60.8084 15.3604 67.9024V68.2864C15.3604 75.3804 16.6533 82.1814 19.2029 88.4886C21.7579 94.808 25.3696 100.407 29.959 105.141C34.5416 109.88 40.0165 113.711 46.2202 116.535C52.454 119.371 59.3984 120.811 66.8587 120.811C74.3183 120.811 81.2929 119.377 87.5878 116.541C93.8639 113.717 99.406 109.819 104.05 104.945C108.699 100.084 112.347 94.4173 114.897 88.104C117.446 81.7906 118.739 74.9897 118.739 67.8956V67.5117C118.739 60.4176 117.446 53.6167 114.897 47.3094M105.834 68.2985C105.834 73.8371 104.863 79.144 102.945 84.0662C101.039 88.9763 98.3499 93.301 94.9629 96.9185C91.582 100.529 87.4604 103.445 82.7194 105.592C77.9912 107.733 72.7825 108.819 67.2412 108.819C61.6991 108.819 56.673 107.763 51.938 105.683C47.1978 103.604 43.015 100.681 39.5005 97.0033C35.9921 93.3313 33.2124 88.94 31.233 83.9564C29.2605 78.9789 28.2587 73.5811 28.2587 67.9145V67.5299C28.2587 61.9912 29.2303 56.6851 31.1425 51.7682C33.0548 46.852 35.7372 42.5333 39.1302 38.9166C42.5118 35.3053 46.6268 32.3837 51.3738 30.2369C56.1027 28.0954 61.3106 27.0163 66.8587 27.0163C72.4061 27.0163 77.4262 28.0711 82.1551 30.1513C86.8953 32.2315 91.0781 35.1591 94.5926 38.8371C98.101 42.5152 100.887 46.9012 102.86 51.8719C104.833 56.8494 105.834 62.2479 105.834 67.9145V68.2985Z" fill="#383838"/>
<path d="M83.9663 52.6787C79.8351 48.2268 74.2115 45.6522 68.139 45.4213C62.0716 45.197 56.2763 47.3522 51.821 51.486C46.9051 56.0501 44.2671 62.5099 44.5736 69.2182C44.8215 74.5858 46.9696 79.7048 50.6292 83.6494C54.7656 88.1014 60.3782 90.6818 66.4566 90.9061C72.5232 91.1304 78.325 88.9752 82.7745 84.8421C87.6905 80.2773 90.3285 73.8116 90.0212 67.1099C89.7733 61.7482 87.6193 56.6234 83.9663 52.6787ZM74.8957 76.351C72.7124 78.3823 69.8676 79.4335 66.8878 79.3272C63.9073 79.2151 61.1453 77.9513 59.1153 75.7667C57.3214 73.8358 56.2705 71.3199 56.1465 68.6809C55.9933 65.3916 57.2914 62.2211 59.7057 59.9771C61.889 57.9458 64.7338 56.8946 67.7136 57.0009C70.7 57.1131 73.4561 58.3769 75.4861 60.5614C77.28 62.4923 78.3309 65.0082 78.4548 67.6414C78.6023 70.9307 77.3093 74.1129 74.8957 76.351Z" fill="#383838"/>
<path d="M114.897 47.3276C112.347 41.0211 108.73 35.4151 104.14 30.67C99.5636 25.9424 94.0887 22.1062 87.879 19.2755C81.6392 16.4396 74.6947 15 67.2412 15C59.7868 15 52.8123 16.4327 46.5113 19.2694C40.2292 22.0993 34.6932 25.9977 30.0435 30.8647C25.3937 35.7324 21.7518 41.399 19.2029 47.7002C16.6533 54.0135 15.3604 60.8084 15.3604 67.9024V68.2864C15.3604 75.3804 16.6533 82.1814 19.2029 88.4886C21.7579 94.808 25.3696 100.407 29.959 105.141C34.5416 109.88 40.0165 113.711 46.2202 116.535C52.454 119.371 59.3984 120.811 66.8587 120.811C74.3183 120.811 81.2929 119.377 87.5878 116.541C93.8639 113.717 99.406 109.819 104.05 104.945C108.699 100.084 112.347 94.4173 114.897 88.104C117.446 81.7906 118.739 74.9897 118.739 67.8956V67.5117C118.739 60.4176 117.446 53.6167 114.897 47.3094M105.834 68.2985C105.834 73.8371 104.863 79.144 102.945 84.0662C101.039 88.9763 98.3499 93.301 94.9629 96.9185C91.582 100.529 87.4604 103.445 82.7194 105.592C77.9912 107.733 72.7825 108.819 67.2412 108.819C61.6991 108.819 56.673 107.763 51.938 105.683C47.1978 103.604 43.015 100.681 39.5005 97.0033C35.9921 93.3313 33.2124 88.94 31.233 83.9564C29.2605 78.9789 28.2587 73.5811 28.2587 67.9145V67.5299C28.2587 61.9912 29.2303 56.6851 31.1425 51.7682C33.0548 46.852 35.7372 42.5333 39.1302 38.9166C42.5118 35.3053 46.6268 32.3837 51.3738 30.2369C56.1027 28.0954 61.3106 27.0163 66.8587 27.0163C72.4061 27.0163 77.4262 28.0711 82.1551 30.1513C86.8953 32.2315 91.0781 35.1591 94.5926 38.8371C98.101 42.5152 100.887 46.9012 102.86 51.8719C104.833 56.8494 105.834 62.2479 105.834 67.9145V68.2985ZM83.9663 52.6787C79.8351 48.2268 74.2115 45.6522 68.139 45.4213C62.0716 45.197 56.2763 47.3522 51.821 51.486C46.9051 56.0501 44.2671 62.5099 44.5736 69.2182C44.8215 74.5858 46.9696 79.7048 50.6292 83.6494C54.7656 88.1014 60.3782 90.6818 66.4566 90.9061C72.5232 91.1304 78.325 88.9752 82.7745 84.8421C87.6905 80.2773 90.3285 73.8116 90.0212 67.1099C89.7733 61.7482 87.6193 56.6234 83.9663 52.6787ZM74.8957 76.351C72.7124 78.3823 69.8676 79.4335 66.8878 79.3272C63.9073 79.2151 61.1453 77.9513 59.1153 75.7667C57.3214 73.8358 56.2705 71.3199 56.1465 68.6809C55.9933 65.3916 57.2914 62.2211 59.7057 59.9771C61.889 57.9458 64.7338 56.8946 67.7136 57.0009C70.7 57.1131 73.4561 58.3769 75.4861 60.5614C77.28 62.4923 78.3309 65.0082 78.4548 67.6414C78.6023 70.9307 77.3093 74.1129 74.8957 76.351Z" stroke="#383838" stroke-width="2.10938"/>
</svg>
